<svg xmlns="http://www.w3.org/2000/svg" viewBox="0 0 64 64" width="64" height="64">
  <defs>
    <linearGradient id="tabGrad" x1="0%" y1="0%" x2="100%" y2="100%">
      <stop offset="0%" stop-color="#7a5c48" />
      <stop offset="50%" stop-color="#8b4e6d" />
      <stop offset="100%" stop-color="#3d291e" />
    </linearGradient>
    <filter id="tabGlow" x="-20%" y="-20%" width="140%" height="140%">
      <feGaussianBlur stdDeviation="1.5" result="blur" />
      <feComposite in="SourceGraphic" in2="blur" operator="over" />
    </filter>
  </defs>

  <!-- Background Diamond Hexagon Badge -->
  <rect x="4" y="4" width="56" height="56" rx="16" fill="url(#tabGrad)" />

  <!-- Inner Protective Inset Border -->
  <rect x="8" y="8" width="48" height="48" rx="12" fill="none" stroke="#ffffff" stroke-opacity="0.35" stroke-width="2" />

  <!-- Outer 'D' Arc Crest -->
  <path d="M20 18 H32 C39 18 44 23 44 32 C44 41 39 46 32 46 H20 V18 Z" fill="none" stroke="#f3ece7" stroke-width="4.5" stroke-linecap="round" stroke-linejoin="round" />

  <!-- Inner 'I' Core Pillar -->
  <path d="M27 18 V46" fill="none" stroke="#f3ece7" stroke-width="4.5" stroke-linecap="round" />

  <!-- Central Floating AI Intelligence Star -->
  <path d="M32 25 L33.8 29.8 L38.6 31.6 L33.8 33.4 L32 38.2 L30.2 33.4 L25.4 31.6 L30.2 29.8 Z" fill="#ffffff" filter="url(#tabGlow)" />

  <!-- Corner Radar Nodes -->
  <circle cx="14" cy="14" r="2" fill="#ffffff" opacity="0.7" />
  <circle cx="50" cy="14" r="2" fill="#ffffff" opacity="0.7" />
  <circle cx="50" cy="50" r="2" fill="#ffffff" opacity="0.7" />
  <circle cx="14" cy="50" r="2" fill="#ffffff" opacity="0.7" />
</svg>
